<?xml version="1.0" encoding="UTF-8"?>
<svg width="174px" height="38px" viewBox="0 0 174 38" version="1.1" xmlns="http://www.w3.org/2000/svg" xmlns:xlink="http://www.w3.org/1999/xlink">
    <!-- Generator: sketchtool 55 (78076) - https://sketchapp.com -->
    <title>A46EBE09-4CC6-4F1F-AB09-F5546A23B977</title>
    <desc>Created with sketchtool.</desc>
    <g id="Ratings" stroke="none" stroke-width="1" fill="none" fill-rule="evenodd">
        <g id="03-00-Ratings" transform="translate(-150.000000, -1379.000000)" fill="#FFFFFF">
            <g id="Group-16" transform="translate(0.000000, 1359.000000)">
                <g id="simetri_logo-monochrome" transform="translate(150.000000, 20.000000)">
                    <text id="by-Crypto-Briefing" opacity="0.600000024" font-family="GothamPro-Bold, Gotham Pro" font-size="8.25" font-weight="bold" line-spacing="13.5">
                        <tspan x="42.88425" y="33">by Crypto Briefing</tspan>
                    </text>
                    <path d="M17.28,15.7503666 L13.3201781,13.3965517 L9.36,15.7503666 L13.3201781,18.1034483 L17.28,15.7503666 Z M27,19.0763853 L27,23.625 L23.1012219,25.899674 L20.2499093,27.5626834 L13.5001815,31.5 L6.75009074,27.5626834 L3.89877808,25.899674 L5.68434189e-14,23.625 L5.68434189e-14,16.6755646 L1.66629028,15.7034284 L3.89877808,14.4008906 L5.5654313,13.4291211 L6.75009074,12.738248 L13.5001815,8.80056461 L20.2499093,12.738248 L21.4345687,13.4291211 L23.1012219,12.4569849 L23.1012219,10.1493073 L18.3005202,7.34914435 L13.5001815,4.54861467 L8.69947978,7.34914435 L7.65382909,7.95897555 L3.89877808,10.1493073 L5.81804251,11.2684924 L1.91890148,13.5427998 L9.81057304e-14,12.4236147 L9.81057304e-14,7.875 L3.89877808,5.60032596 L6.75009074,3.93731665 L13.5001815,0 L20.2499093,3.93731665 L23.1012219,5.60032596 L27,7.875 L27,14.7316589 L25.3337097,15.7034284 L23.1012219,17.0055995 L21.4345687,17.9777357 L20.2499093,18.6686088 L13.5001815,22.6059255 L6.75009074,18.6686088 L5.5654313,17.977369 L3.89877808,18.9498719 L3.89877808,21.3506927 L8.69947978,24.1508556 L13.5001815,26.9510186 L18.3005202,24.1508556 L20.1217889,23.0885099 L23.1012219,21.3506927 L23.1012219,21.23078 L21.3209662,20.1922701 L25.2201073,17.9179627 L27,18.9561059 L27,19.0763853 Z" id="path32" transform="translate(13.500000, 15.750000) scale(1, -1) translate(-13.500000, -15.750000) "></path>
                    <path d="M103.5,20.2016129 L103.5,22.5 L117.75,22.5 L117.75,20.2016129 L109.898861,20.2016129 L106.117716,20.2016129 L103.5,20.2016129 Z M103.5,14.2258065 L103.5,16.5241935 L106.117716,16.5241935 L109.898861,16.5241935 L117.75,16.5241935 L117.75,14.2258065 L110.947756,14.2258065 L106.117716,14.2258065 L103.5,14.2258065 Z M103.5,8.25 L103.5,10.5483871 L106.117716,10.5483871 L110.947756,10.5483871 L117.75,10.5483871 L117.75,10.3766475 L117.75,8.25 L103.5,8.25 Z" id="path40"></path>
                    <path d="M42.437782,22.5 L42.437782,20.3948864 L54.0865896,20.3948864 C55.2032565,20.3948864 55.7615815,19.9563254 55.7615815,19.0791903 L55.7615815,17.2776989 C55.7615815,16.4005638 55.2032565,15.9620028 54.0865896,15.9620028 L46.2065139,15.9620028 C45.4451501,15.9620028 44.7980006,15.8776642 44.2650459,15.7089844 C43.7320913,15.5403046 43.297486,15.3041563 42.961217,15.0005327 C42.624948,14.696909 42.3806807,14.3359396 42.228408,13.9176136 C42.0761352,13.4992877 42,13.0337384 42,12.5209517 L42,11.6910511 C42,11.1782645 42.0761352,10.7127152 42.228408,10.2943892 C42.3806807,9.87606325 42.624948,9.51509385 42.961217,9.21147017 C43.297486,8.90784649 43.7320913,8.67169829 44.2650459,8.50301847 C44.7980006,8.33433865 45.4451501,8.25 46.2065139,8.25 L57.5507775,8.25 L57.5507775,10.3551136 L46.2065139,10.3551136 C45.089847,10.3551136 44.5315219,10.7936746 44.5315219,11.6708097 L44.5315219,12.5411932 C44.5315219,13.4183282 45.089847,13.8568892 46.2065139,13.8568892 L54.0865896,13.8568892 C54.8479534,13.8568892 55.4951029,13.9412278 56.0280575,14.1099077 C56.5610122,14.2785875 56.9956175,14.5147357 57.3318865,14.8183594 C57.6681555,15.1219831 57.9124227,15.4829525 58.0646955,15.9012784 C58.2169682,16.3196044 58.2931034,16.7851537 58.2931034,17.2979403 L58.2931034,19.0589489 C58.2931034,19.5717355 58.2169682,20.0372848 58.0646955,20.4556108 C57.9124227,20.8739368 57.6681555,21.2349062 57.3318865,21.5385298 C56.9956175,21.8421535 56.5610122,22.0783017 56.0280575,22.2469815 C55.4951029,22.4156614 54.8479534,22.5 54.0865896,22.5 L42.437782,22.5 Z M64.8103448,22.5 L64.8103448,8.25 L67.6034483,8.25 L67.6034483,22.5 L64.8103448,22.5 Z M93.6498327,22.5 L93.6498327,12.5209517 L86.8095085,22.5 L84.7268399,22.5 L77.8674086,12.5411932 L77.8674086,22.5 L75.5172414,22.5 L75.5172414,8.25 L77.8865157,8.25 L85.873263,19.8888494 L93.8217962,8.25 L96,8.25 L96,22.5 L93.6498327,22.5 Z" id="SIM" fill-rule="nonzero"></path>
                    <path d="M131.835781,22.5 L131.835781,10.3551136 L124.5,10.3551136 L124.5,8.25 L141.616822,8.25 L141.616822,10.3551136 L134.479843,10.3551136 L134.479843,22.5 L131.835781,22.5 Z M161.319554,22.5 L158.057513,16.1441761 L150.722861,16.1441761 L150.722861,22.5 L148.093458,22.5 L148.093458,8.25 L159.915888,8.25 C160.70669,8.25 161.378861,8.33433865 161.932423,8.50301847 C162.485984,8.67169829 162.937393,8.90784649 163.286664,9.21147017 C163.635935,9.51509385 163.889647,9.87606325 164.047807,10.2943892 C164.205968,10.7127152 164.285047,11.1782645 164.285047,11.6910511 L164.285047,12.703125 C164.285047,13.6207432 164.02145,14.3865381 163.494249,15.0005327 C162.967047,15.6145272 162.083999,15.9822437 160.845075,16.1036932 L164.126887,22.5 L161.319554,22.5 Z M161.509346,11.8617512 C161.509346,10.9861707 160.944953,10.5483871 159.816151,10.5483871 L150.869159,10.5483871 L150.869159,14.2258065 L159.816151,14.2258065 C160.944953,14.2258065 161.509346,13.7880228 161.509346,12.9124424 L161.509346,11.8617512 Z M171.224299,22.5 L171.224299,8.25 L174,8.25 L174,22.5 L171.224299,22.5 Z" id="TRI" fill-rule="nonzero"></path>
                </g>
            </g>
        </g>
    </g>
</svg>